<?xml version="1.0" standalone="no"?><!DOCTYPE svg PUBLIC "-//W3C//DTD SVG 1.1//EN" "http://www.w3.org/Graphics/SVG/1.1/DTD/svg11.dtd"><svg t="1720521489619" class="icon" viewBox="0 0 1024 1024" version="1.1" xmlns="http://www.w3.org/2000/svg" p-id="6166" xmlns:xlink="http://www.w3.org/1999/xlink" width="200" height="200"><path d="M510.476308 235.176577a48.701392 48.701392 0 0 0-48.526835 48.526834v244.379744a48.526835 48.526835 0 1 0 96.879113 0v-244.379744a48.526835 48.526835 0 0 0-48.352278-48.526834z" fill="#FF517F" p-id="6167"></path><path d="M513.094662 486.713155a48.526835 48.526835 0 0 0-34.911392 82.739999l120.967973 120.967973a48.526835 48.526835 0 1 0 68.600885-68.600885l-120.967972-120.967973a48.352278 48.352278 0 0 0-34.911392-14.139114z" fill="#FF517F" p-id="6168"></path><path d="M384.097069 622.867584a74.012151 74.012151 0 1 0 74.012151 74.01215A73.837594 73.837594 0 0 0 384.097069 622.867584z" fill="#FF517F" opacity=".3" p-id="6169"></path><path d="M511.872764 1023.999476a508.833537 508.833537 0 0 1-173.335061-30.198354 43.63924 43.63924 0 1 1 29.674683-82.041771 425.046196 425.046196 0 1 0-163.908985-107.003416 43.63924 43.63924 0 1 1-63.189619 60.222151 511.975562 511.975562 0 1 1 370.758982 159.02139z" fill="#FF517F" p-id="6170"></path></svg>