<?xml version="1.0" standalone="no"?><!DOCTYPE svg PUBLIC "-//W3C//DTD SVG 1.1//EN" "http://www.w3.org/Graphics/SVG/1.1/DTD/svg11.dtd"><svg t="1755857279063" class="icon" viewBox="0 0 1024 1024" version="1.1" xmlns="http://www.w3.org/2000/svg" p-id="13488" xmlns:xlink="http://www.w3.org/1999/xlink" width="200" height="200"><path d="M0 0m102.4 0l819.2 0q102.4 0 102.4 102.4l0 819.2q0 102.4-102.4 102.4l-819.2 0q-102.4 0-102.4-102.4l0-819.2q0-102.4 102.4-102.4Z" fill="#23C5A9" p-id="13489"></path><path d="M517.12 465.92m-400.95744 0a400.95744 400.95744 0 1 0 801.91488 0 400.95744 400.95744 0 1 0-801.91488 0Z" fill="#D2D1D1" p-id="13490"></path><path d="M517.12 506.88m-400.95744 0a400.95744 400.95744 0 1 0 801.91488 0 400.95744 400.95744 0 1 0-801.91488 0Z" fill="#DBEBE8" p-id="13491"></path><path d="M102.4 0h819.2a102.4 102.4 0 0 1 102.4 102.4v409.6H0V102.4A102.4 102.4 0 0 1 102.4 0z" opacity=".2" p-id="13492"></path><path d="M501.76 266.24h20.48v266.24h-20.48z" fill="#603115" p-id="13493"></path><path d="M494.14144 512L512 527.81056 304.57856 757.76 286.72 741.94944z" fill="#F67C96" p-id="13494"></path><path d="M501.76 501.76h266.24v20.48H501.76z" fill="#603115" p-id="13495"></path><path d="M512 512m-40.96 0a40.96 40.96 0 1 0 81.92 0 40.96 40.96 0 1 0-81.92 0Z" fill="#FFFFFF" p-id="13496"></path></svg>